ffmpeg started on 2025-06-06 at 16:55:16
Report written to "D:\Convert\FFMetrics\reports\ssim_report-6.txt"
Log level: 32
Command line:
ffmpeg -hide_banner -nostdin -i "G:\\\xc0\xed\xe8\xec\xe5\\\xce\xed\xe3\xee\xe8\xed\xe3\xe8\\!_36_\xce\xf1\xe5\xed\xfc_2024\\DreamCast\\\xcf\xeb\xee\xf5\xe0\xff \xef\xee\xe5\xe7\xe4\xea\xe0\\[DC] Acro Trip - 07_Telegram_HEVC.mkv" -i "G:\\\xc0\xed\xe8\xec\xe5\\\xce\xed\xe3\xee\xe8\xed\xe3\xe8\\!_36_\xce\xf1\xe5\xed\xfc_2024\\DreamCast\\\xcf\xeb\xee\xf5\xe0\xff \xef\xee\xe5\xe7\xe4\xea\xe0\\[DC] Acro Trip - 07_Telegram.mp4" -lavfi "[0:v]settb=AVTB,setpts=PTS-STARTPTS,format=pix_fmts=yuv420p10,fps=24000/1001,scale=1920:1080:flags=bicubic[main];[1:v]settb=AVTB,setpts=PTS-STARTPTS,format=pix_fmts=yuv420p,fps=24000/1001,scale=1920:1080:flags=bicubic[ref];[main][ref]ssim=eof_action=endall:stats_file='D\\:/Convert/FFMetrics/logs/ssim_logfile-6.txt'" -f null -
Input #0, matroska,webm, from 'G:\Аниме\Онгоинги\!_36_Осень_2024\DreamCast\Плохая поездка\[DC] Acro Trip - 07_Telegram_HEVC.mkv':
  Metadata:
    COMPATIBLE_BRANDS: isomiso2avc1mp41
    MAJOR_BRAND     : isom
    MINOR_VERSION   : 512
    ENCODER         : Lavf61.7.100
  Duration: 00:23:46.65, start: -0.021000, bitrate: 1107 kb/s
  Stream #0:0: Video: hevc (Main 10), yuv420p10le(tv, bt709, progressive), 1920x1080 [SAR 1:1 DAR 16:9], 23.98 fps, 23.98 tbr, 1k tbn (default)
      Metadata:
        HANDLER_NAME    : VideoHandler
        VENDOR_ID       : [0][0][0][0]
        ENCODER         : Lavc61.19.100 libx265
        BPS             : 910282
        DURATION        : 00:23:46.549708333
        NUMBER_OF_FRAMES: 34203
        NUMBER_OF_BYTES : 162320332
        _STATISTICS_WRITING_APP: mkvpropedit v66.0.0 ('Josie') 64-bit
        _STATISTICS_WRITING_DATE_UTC: 2025-06-02 12:43:37
        _STATISTICS_TAGS: BPS DURATION NUMBER_OF_FRAMES NUMBER_OF_BYTES
  Stream #0:1: Audio: aac (LC), 48000 Hz, stereo, fltp (default)
      Metadata:
        HANDLER_NAME    : SoundHandler
        VENDOR_ID       : [0][0][0][0]
        ENCODER         : Lavc61.19.100 aac
        BPS             : 193351
        DURATION        : 00:23:46.645000000
        NUMBER_OF_FRAMES: 66875
        NUMBER_OF_BYTES : 34480484
        _STATISTICS_WRITING_APP: mkvpropedit v66.0.0 ('Josie') 64-bit
        _STATISTICS_WRITING_DATE_UTC: 2025-06-02 12:43:37
        _STATISTICS_TAGS: BPS DURATION NUMBER_OF_FRAMES NUMBER_OF_BYTES
Input #1, mov,mp4,m4a,3gp,3g2,mj2, from 'G:\Аниме\Онгоинги\!_36_Осень_2024\DreamCast\Плохая поездка\[DC] Acro Trip - 07_Telegram.mp4':
  Metadata:
    major_brand     : isom
    minor_version   : 512
    compatible_brands: isomiso2avc1mp41
    encoder         : Lavf61.1.100
  Duration: 00:23:46.62, start: 0.000000, bitrate: 3758 kb/s
  Stream #1:0[0x1](und): Video: h264 (High) (avc1 / 0x31637661), yuv420p(tv, bt709, progressive), 1920x1080 [SAR 1:1 DAR 16:9], 3610 kb/s, 23.98 fps, 23.98 tbr, 24k tbn (default)
      Metadata:
        handler_name    : VideoHandler
        vendor_id       : [0][0][0][0]
        encoder         : Lavc61.3.100 h264_qsv
  Stream #1:1[0x2](und): Audio: aac (HE-AACv2) (mp4a / 0x6134706D), 48000 Hz, stereo, fltp, 144 kb/s (default)
      Metadata:
        handler_name    : SoundHandler
        vendor_id       : [0][0][0][0]
Stream mapping:
  Stream #0:0 (hevc) -> settb:default
  Stream #1:0 (h264) -> settb:default
  ssim:default -> Stream #0:0 (wrapped_avframe)
  Stream #0:1 -> #0:1 (aac (native) -> pcm_s16le (native))
Output #0, null, to 'pipe:':
  Metadata:
    COMPATIBLE_BRANDS: isomiso2avc1mp41
    MAJOR_BRAND     : isom
    MINOR_VERSION   : 512
    encoder         : Lavf61.7.100
  Stream #0:0: Video: wrapped_avframe, yuv420p10le(tv, bt709, progressive), 1920x1080 [SAR 1:1 DAR 16:9], q=2-31, 200 kb/s, 23.98 fps, 23.98 tbn
      Metadata:
        encoder         : Lavc61.19.100 wrapped_avframe
  Stream #0:1: Audio: pcm_s16le, 48000 Hz, stereo, s16, 1536 kb/s (default)
      Metadata:
        HANDLER_NAME    : SoundHandler
        VENDOR_ID       : [0][0][0][0]
        _STATISTICS_TAGS: BPS DURATION NUMBER_OF_FRAMES NUMBER_OF_BYTES
        BPS             : 193351
        DURATION        : 00:23:46.645000000
        NUMBER_OF_FRAMES: 66875
        NUMBER_OF_BYTES : 34480484
        _STATISTICS_WRITING_APP: mkvpropedit v66.0.0 ('Josie') 64-bit
        _STATISTICS_WRITING_DATE_UTC: 2025-06-02 12:43:37
        encoder         : Lavc61.19.100 pcm_s16le
frame=  155 fps=0.0 q=-0.0 size=N/A time=00:00:06.46 bitrate=N/A speed=12.8x    frame=  402 fps=389 q=-0.0 size=N/A time=00:00:16.76 bitrate=N/A speed=16.2x    frame=  594 fps=386 q=-0.0 size=N/A time=00:00:24.77 bitrate=N/A speed=16.1x    frame=  839 fps=409 q=-0.0 size=N/A time=00:00:34.99 bitrate=N/A speed=17.1x    frame= 1078 fps=419 q=-0.0 size=N/A time=00:00:44.96 bitrate=N/A speed=17.5x    frame= 1323 fps=427 q=-0.0 size=N/A time=00:00:55.18 bitrate=N/A speed=17.8x    frame= 1581 fps=438 q=-0.0 size=N/A time=00:01:05.94 bitrate=N/A speed=18.3x    frame= 1819 fps=441 q=-0.0 size=N/A time=00:01:15.86 bitrate=N/A speed=18.4x    frame= 2028 fps=437 q=-0.0 size=N/A time=00:01:24.58 bitrate=N/A speed=18.2x    frame= 2266 fps=439 q=-0.0 size=N/A time=00:01:34.51 bitrate=N/A speed=18.3x    frame= 2510 fps=443 q=-0.0 size=N/A time=00:01:44.68 bitrate=N/A speed=18.5x    frame= 2753 fps=445 q=-0.0 size=N/A time=00:01:54.82 bitrate=N/A speed=18.6x    frame= 2977 fps=445 q=-0.0 size=N/A time=00:02:04.16 bitrate=N/A speed=18.5x    frame= 3229 fps=447 q=-0.0 size=N/A time=00:02:14.67 bitrate=N/A speed=18.7x    frame= 3443 fps=446 q=-0.0 size=N/A time=00:02:23.60 bitrate=N/A speed=18.6x    frame= 3632 fps=440 q=-0.0 size=N/A time=00:02:31.48 bitrate=N/A speed=18.4x    frame= 3850 fps=440 q=-0.0 size=N/A time=00:02:40.57 bitrate=N/A speed=18.3x    frame= 4076 fps=439 q=-0.0 size=N/A time=00:02:50.00 bitrate=N/A speed=18.3x    frame= 4259 fps=435 q=-0.0 size=N/A time=00:02:57.63 bitrate=N/A speed=18.1x    frame= 4464 fps=433 q=-0.0 size=N/A time=00:03:06.18 bitrate=N/A speed=18.1x    frame= 4643 fps=429 q=-0.0 size=N/A time=00:03:13.65 bitrate=N/A speed=17.9x    frame= 4823 fps=425 q=-0.0 size=N/A time=00:03:21.15 bitrate=N/A speed=17.7x    frame= 4979 fps=420 q=-0.0 size=N/A time=00:03:27.66 bitrate=N/A speed=17.5x    frame= 5156 fps=417 q=-0.0 size=N/A time=00:03:35.04 bitrate=N/A speed=17.4x    frame= 5317 fps=412 q=-0.0 size=N/A time=00:03:41.76 bitrate=N/A speed=17.2x    frame= 5497 fps=410 q=-0.0 size=N/A time=00:03:49.27 bitrate=N/A speed=17.1x    frame= 5765 fps=414 q=-0.0 size=N/A time=00:04:00.44 bitrate=N/A speed=17.2x    frame= 6011 fps=416 q=-0.0 size=N/A time=00:04:10.70 bitrate=N/A speed=17.4x    frame= 6274 fps=419 q=-0.0 size=N/A time=00:04:21.67 bitrate=N/A speed=17.5x    frame= 6538 fps=422 q=-0.0 size=N/A time=00:04:32.68 bitrate=N/A speed=17.6x    frame= 6789 fps=424 q=-0.0 size=N/A time=00:04:43.15 bitrate=N/A speed=17.7x    frame= 7049 fps=427 q=-0.0 size=N/A time=00:04:54.00 bitrate=N/A speed=17.8x    frame= 7330 fps=430 q=-0.0 size=N/A time=00:05:05.72 bitrate=N/A speed=17.9x    frame= 7583 fps=432 q=-0.0 size=N/A time=00:05:16.27 bitrate=N/A speed=  18x    frame= 7875 fps=436 q=-0.0 size=N/A time=00:05:28.45 bitrate=N/A speed=18.2x    frame= 8112 fps=436 q=-0.0 size=N/A time=00:05:38.33 bitrate=N/A speed=18.2x    frame= 8365 fps=438 q=-0.0 size=N/A time=00:05:48.89 bitrate=N/A speed=18.3x    frame= 8624 fps=440 q=-0.0 size=N/A time=00:05:59.69 bitrate=N/A speed=18.3x    frame= 8904 fps=442 q=-0.0 size=N/A time=00:06:11.37 bitrate=N/A speed=18.4x    frame= 9180 fps=444 q=-0.0 size=N/A time=00:06:22.88 bitrate=N/A speed=18.5x    frame= 9454 fps=447 q=-0.0 size=N/A time=00:06:34.31 bitrate=N/A speed=18.6x    frame= 9725 fps=448 q=-0.0 size=N/A time=00:06:45.61 bitrate=N/A speed=18.7x    frame= 9994 fps=450 q=-0.0 size=N/A time=00:06:56.83 bitrate=N/A speed=18.8x    frame=10249 fps=451 q=-0.0 size=N/A time=00:07:07.46 bitrate=N/A speed=18.8x    frame=10527 fps=453 q=-0.0 size=N/A time=00:07:19.06 bitrate=N/A speed=18.9x    frame=10789 fps=454 q=-0.0 size=N/A time=00:07:29.99 bitrate=N/A speed=18.9x    frame=11059 fps=455 q=-0.0 size=N/A time=00:07:41.25 bitrate=N/A speed=  19x    frame=11255 fps=454 q=-0.0 size=N/A time=00:07:49.42 bitrate=N/A speed=18.9x    frame=11469 fps=453 q=-0.0 size=N/A time=00:07:58.35 bitrate=N/A speed=18.9x    frame=11721 fps=454 q=-0.0 size=N/A time=00:08:08.86 bitrate=N/A speed=18.9x    frame=11935 fps=453 q=-0.0 size=N/A time=00:08:17.78 bitrate=N/A speed=18.9x    frame=12195 fps=454 q=-0.0 size=N/A time=00:08:28.63 bitrate=N/A speed=18.9x    frame=12453 fps=455 q=-0.0 size=N/A time=00:08:39.39 bitrate=N/A speed=  19x    frame=12671 fps=454 q=-0.0 size=N/A time=00:08:48.48 bitrate=N/A speed=18.9x    frame=12920 fps=455 q=-0.0 size=N/A time=00:08:58.87 bitrate=N/A speed=  19x    frame=13178 fps=455 q=-0.0 size=N/A time=00:09:09.63 bitrate=N/A speed=  19x    frame=13407 fps=455 q=-0.0 size=N/A time=00:09:19.18 bitrate=N/A speed=  19x    frame=13625 fps=455 q=-0.0 size=N/A time=00:09:28.27 bitrate=N/A speed=  19x    frame=13879 fps=455 q=-0.0 size=N/A time=00:09:38.86 bitrate=N/A speed=  19x    frame=14130 fps=456 q=-0.0 size=N/A time=00:09:49.33 bitrate=N/A speed=  19x    frame=14392 fps=457 q=-0.0 size=N/A time=00:10:00.26 bitrate=N/A speed=  19x    frame=14654 fps=458 q=-0.0 size=N/A time=00:10:11.19 bitrate=N/A speed=19.1x    frame=14925 fps=459 q=-0.0 size=N/A time=00:10:22.49 bitrate=N/A speed=19.1x    frame=15174 fps=459 q=-0.0 size=N/A time=00:10:32.88 bitrate=N/A speed=19.1x    frame=15438 fps=460 q=-0.0 size=N/A time=00:10:43.89 bitrate=N/A speed=19.2x    frame=15691 fps=460 q=-0.0 size=N/A time=00:10:54.44 bitrate=N/A speed=19.2x    frame=15940 fps=461 q=-0.0 size=N/A time=00:11:04.83 bitrate=N/A speed=19.2x    frame=16202 fps=461 q=-0.0 size=N/A time=00:11:15.80 bitrate=N/A speed=19.2x    frame=16440 fps=461 q=-0.0 size=N/A time=00:11:25.68 bitrate=N/A speed=19.2x    frame=16680 fps=461 q=-0.0 size=N/A time=00:11:35.69 bitrate=N/A speed=19.2x    frame=16940 fps=462 q=-0.0 size=N/A time=00:11:46.53 bitrate=N/A speed=19.3x    frame=17185 fps=462 q=-0.0 size=N/A time=00:11:56.75 bitrate=N/A speed=19.3x    frame=17413 fps=462 q=-0.0 size=N/A time=00:12:06.26 bitrate=N/A speed=19.3x    frame=17683 fps=463 q=-0.0 size=N/A time=00:12:17.52 bitrate=N/A speed=19.3x    frame=17873 fps=462 q=-0.0 size=N/A time=00:12:25.45 bitrate=N/A speed=19.3x    frame=18083 fps=461 q=-0.0 size=N/A time=00:12:34.21 bitrate=N/A speed=19.2x    frame=18345 fps=461 q=-0.0 size=N/A time=00:12:45.13 bitrate=N/A speed=19.2x    frame=18612 fps=462 q=-0.0 size=N/A time=00:12:56.27 bitrate=N/A speed=19.3x    frame=18821 fps=461 q=-0.0 size=N/A time=00:13:04.99 bitrate=N/A speed=19.2x    frame=19082 fps=462 q=-0.0 size=N/A time=00:13:15.87 bitrate=N/A speed=19.3x    frame=19364 fps=463 q=-0.0 size=N/A time=00:13:27.68 bitrate=N/A speed=19.3x    frame=19631 fps=464 q=-0.0 size=N/A time=00:13:38.77 bitrate=N/A speed=19.3x    frame=19880 fps=464 q=-0.0 size=N/A time=00:13:49.16 bitrate=N/A speed=19.4x    frame=20141 fps=464 q=-0.0 size=N/A time=00:14:00.04 bitrate=N/A speed=19.4x    frame=20371 fps=464 q=-0.0 size=N/A time=00:14:09.64 bitrate=N/A speed=19.4x    frame=20582 fps=463 q=-0.0 size=N/A time=00:14:18.44 bitrate=N/A speed=19.3x    frame=20810 fps=463 q=-0.0 size=N/A time=00:14:27.95 bitrate=N/A speed=19.3x    frame=21072 fps=464 q=-0.0 size=N/A time=00:14:38.87 bitrate=N/A speed=19.3x    frame=21334 fps=464 q=-0.0 size=N/A time=00:14:49.80 bitrate=N/A speed=19.4x    frame=21573 fps=464 q=-0.0 size=N/A time=00:14:59.77 bitrate=N/A speed=19.4x    frame=21838 fps=465 q=-0.0 size=N/A time=00:15:10.82 bitrate=N/A speed=19.4x    frame=22083 fps=465 q=-0.0 size=N/A time=00:15:21.04 bitrate=N/A speed=19.4x    frame=22312 fps=465 q=-0.0 size=N/A time=00:15:30.59 bitrate=N/A speed=19.4x    frame=22553 fps=465 q=-0.0 size=N/A time=00:15:40.64 bitrate=N/A speed=19.4x    frame=22806 fps=465 q=-0.0 size=N/A time=00:15:51.20 bitrate=N/A speed=19.4x    frame=22982 fps=464 q=-0.0 size=N/A time=00:15:58.54 bitrate=N/A speed=19.3x    frame=23209 fps=463 q=-0.0 size=N/A time=00:16:08.00 bitrate=N/A speed=19.3x    frame=23470 fps=464 q=-0.0 size=N/A time=00:16:18.89 bitrate=N/A speed=19.3x    frame=23724 fps=464 q=-0.0 size=N/A time=00:16:29.48 bitrate=N/A speed=19.4x    frame=23974 fps=464 q=-0.0 size=N/A time=00:16:39.91 bitrate=N/A speed=19.4x    frame=24235 fps=465 q=-0.0 size=N/A time=00:16:50.80 bitrate=N/A speed=19.4x    frame=24478 fps=465 q=-0.0 size=N/A time=00:17:00.93 bitrate=N/A speed=19.4x    frame=24738 fps=465 q=-0.0 size=N/A time=00:17:11.78 bitrate=N/A speed=19.4x    frame=24967 fps=465 q=-0.0 size=N/A time=00:17:21.33 bitrate=N/A speed=19.4x    frame=25197 fps=465 q=-0.0 size=N/A time=00:17:30.92 bitrate=N/A speed=19.4x    frame=25437 fps=465 q=-0.0 size=N/A time=00:17:40.93 bitrate=N/A speed=19.4x    frame=25663 fps=465 q=-0.0 size=N/A time=00:17:50.36 bitrate=N/A speed=19.4x    frame=25912 fps=465 q=-0.0 size=N/A time=00:18:00.74 bitrate=N/A speed=19.4x    frame=26145 fps=465 q=-0.0 size=N/A time=00:18:10.46 bitrate=N/A speed=19.4x    frame=26373 fps=465 q=-0.0 size=N/A time=00:18:19.97 bitrate=N/A speed=19.4x    frame=26617 fps=465 q=-0.0 size=N/A time=00:18:30.15 bitrate=N/A speed=19.4x    frame=26868 fps=465 q=-0.0 size=N/A time=00:18:40.61 bitrate=N/A speed=19.4x    frame=27119 fps=465 q=-0.0 size=N/A time=00:18:51.08 bitrate=N/A speed=19.4x    frame=27369 fps=465 q=-0.0 size=N/A time=00:19:01.51 bitrate=N/A speed=19.4x    frame=27620 fps=465 q=-0.0 size=N/A time=00:19:11.98 bitrate=N/A speed=19.4x    frame=27889 fps=466 q=-0.0 size=N/A time=00:19:23.20 bitrate=N/A speed=19.4x    frame=28142 fps=466 q=-0.0 size=N/A time=00:19:33.75 bitrate=N/A speed=19.4x    frame=28363 fps=466 q=-0.0 size=N/A time=00:19:42.97 bitrate=N/A speed=19.4x    frame=28596 fps=465 q=-0.0 size=N/A time=00:19:52.69 bitrate=N/A speed=19.4x    frame=28804 fps=465 q=-0.0 size=N/A time=00:20:01.36 bitrate=N/A speed=19.4x    frame=29020 fps=465 q=-0.0 size=N/A time=00:20:10.37 bitrate=N/A speed=19.4x    frame=29262 fps=465 q=-0.0 size=N/A time=00:20:20.46 bitrate=N/A speed=19.4x    frame=29515 fps=465 q=-0.0 size=N/A time=00:20:31.02 bitrate=N/A speed=19.4x    frame=29770 fps=465 q=-0.0 size=N/A time=00:20:41.65 bitrate=N/A speed=19.4x    frame=30028 fps=465 q=-0.0 size=N/A time=00:20:52.41 bitrate=N/A speed=19.4x    frame=30274 fps=465 q=-0.0 size=N/A time=00:21:02.67 bitrate=N/A speed=19.4x    frame=30520 fps=466 q=-0.0 size=N/A time=00:21:12.93 bitrate=N/A speed=19.4x    frame=30780 fps=466 q=-0.0 size=N/A time=00:21:23.78 bitrate=N/A speed=19.4x    frame=31048 fps=466 q=-0.0 size=N/A time=00:21:34.96 bitrate=N/A speed=19.4x    frame=31321 fps=467 q=-0.0 size=N/A time=00:21:46.34 bitrate=N/A speed=19.5x    frame=31568 fps=467 q=-0.0 size=N/A time=00:21:56.69 bitrate=N/A speed=19.5x    frame=31803 fps=467 q=-0.0 size=N/A time=00:22:06.45 bitrate=N/A speed=19.5x    frame=32072 fps=467 q=-0.0 size=N/A time=00:22:17.66 bitrate=N/A speed=19.5x    frame=32344 fps=468 q=-0.0 size=N/A time=00:22:29.01 bitrate=N/A speed=19.5x    frame=32573 fps=467 q=-0.0 size=N/A time=00:22:38.56 bitrate=N/A speed=19.5x    frame=32820 fps=468 q=-0.0 size=N/A time=00:22:48.86 bitrate=N/A speed=19.5x    frame=33064 fps=468 q=-0.0 size=N/A time=00:22:59.04 bitrate=N/A speed=19.5x    frame=33294 fps=467 q=-0.0 size=N/A time=00:23:08.63 bitrate=N/A speed=19.5x    frame=33537 fps=467 q=-0.0 size=N/A time=00:23:18.77 bitrate=N/A speed=19.5x    frame=33789 fps=467 q=-0.0 size=N/A time=00:23:29.28 bitrate=N/A speed=19.5x    frame=34019 fps=467 q=-0.0 size=N/A time=00:23:38.87 bitrate=N/A speed=19.5x    [Parsed_ssim_10 @ 000001601ce6b6c0] SSIM Y:0.994592 (22.669441) U:0.993900 (22.147001) V:0.993860 (22.118128) All:0.994355 (22.483001)
[out#0/null @ 000001601cfc5e00] video:14697KiB audio:267500KiB subtitle:0KiB other streams:0KiB global headers:0KiB muxing overhead: unknown
frame=34203 fps=468 q=-0.0 Lsize=N/A time=00:23:46.55 bitrate=N/A speed=19.5x    
